<?xml version="1.0" encoding="UTF-8"?>
<svg width="20px" height="20px" viewBox="0 0 20 20" version="1.1" xmlns="http://www.w3.org/2000/svg" xmlns:xlink="http://www.w3.org/1999/xlink">
    <!-- Generator: Sketch 51.3 (57544) - http://www.bohemiancoding.com/sketch -->
    <title>ic_close</title>
    <desc>Created with Sketch.</desc>
    <defs></defs>
    <g id="ic_close" stroke="none" stroke-width="1" fill="none" fill-rule="evenodd">
        <g id="if_cancel_1303884" fill="#FFFFFF" fill-rule="nonzero">
            <path d="M11.0403448,10 L19.7156322,1.32471264 C20.0029885,1.03735632 20.0029885,0.571724138 19.7156322,0.284367816 C19.4282759,-0.00298850575 18.9626437,-0.00298850575 18.6752874,0.284367816 L10,8.95965517 L1.32471264,0.284482759 C1.03735632,-0.00287356322 0.571724138,-0.00287356322 0.284367816,0.284482759 C-0.00298850575,0.57183908 -0.00298850575,1.03747126 0.284367816,1.32482759 L8.95965517,10 L0.284367816,18.6752874 C-0.00298850575,18.9626437 -0.00298850575,19.4282759 0.284367816,19.7156322 C0.428045977,19.8593103 0.616321839,19.9311494 0.804482759,19.9311494 C0.992643678,19.9311494 1.18091954,19.8593103 1.3245977,19.7156322 L10,11.0403448 L18.6752874,19.7156322 C18.8189655,19.8593103 19.0072414,19.9311494 19.1954023,19.9311494 C19.3835632,19.9311494 19.5718391,19.8593103 19.7155172,19.7156322 C20.0028736,19.4282759 20.0028736,18.9626437 19.7155172,18.6752874 L11.0403448,10 Z" id="Shape"></path>
        </g>
    </g>
</svg>