<?xml version="1.0" encoding="UTF-8"?>
<svg width="20px" height="20px" viewBox="0 0 20 20" version="1.1" xmlns="http://www.w3.org/2000/svg" xmlns:xlink="http://www.w3.org/1999/xlink">
    <!-- Generator: Sketch 51.3 (57544) - http://www.bohemiancoding.com/sketch -->
    <title>ic_facebook</title>
    <desc>Created with Sketch.</desc>
    <defs></defs>
    <g id="ic_facebook" stroke="none" stroke-width="1" fill="none" fill-rule="evenodd">
        <path d="M6.98178689,19.7530864 C6.96258508,16.546384 6.98658734,12.9756473 6.97058583,9.87295471 C6.31372389,9.8665541 5.65606187,9.83215086 5,9.8209498 C5.00080008,8.72564651 5,7.60554088 5,6.50943752 C5.65766202,6.50143677 6.31372389,6.49983661 6.97058583,6.49343601 C6.99058772,5.42693544 6.95058394,4.35403426 6.99218787,3.28913384 C7.05779405,2.44505424 7.37862431,1.59297389 8.00908376,1.00971889 C8.77315582,0.282450304 9.8588582,0.0360270661 10.8829548,0.00562419901 C11.9662569,-0.00397670637 13.0479589,0.00162382177 14.1320612,0.00162382177 C14.1352615,1.14333149 14.1352615,2.2866393 14.1312611,3.42994712 C13.4311951,3.42834697 12.730329,3.43074719 12.031063,3.42834697 C11.5870212,3.40034433 11.1317782,3.73637602 11.0501705,4.17641751 C11.0397696,4.94048957 11.0469702,5.70536169 11.0469702,6.47023382 C12.073467,6.4742342 13.1007639,6.46943375 14.1272607,6.47263405 C14.0520536,7.57833832 13.9144406,8.68004221 13.7536255,9.77694565 C12.8463399,9.78494641 11.9390544,9.8665541 11.033369,9.87295471 C11.0253682,12.9740471 11.0349691,16.546384 11.0277684,19.7530864 L6.98178689,19.7530864 Z" id="Fill-1" fill="#FFFFFF"></path>
    </g>
</svg>