<?xml version="1.0" encoding="UTF-8"?>
<svg width="20px" height="20px" viewBox="0 0 20 20" version="1.1" xmlns="http://www.w3.org/2000/svg" xmlns:xlink="http://www.w3.org/1999/xlink">
    <!-- Generator: Sketch 51.3 (57544) - http://www.bohemiancoding.com/sketch -->
    <title>ic_link</title>
    <desc>Created with Sketch.</desc>
    <defs></defs>
    <g id="ic_link" stroke="none" stroke-width="1" fill="none" fill-rule="evenodd">
        <g id="Group" transform="translate(2.000000, 6.000000)" fill="#FFFFFF" fill-rule="nonzero">
            <path d="M1.52,4 C1.52,2.632 2.632,1.52 4,1.52 L7.2,1.52 L7.2,0 L4,0 C1.792,0 0,1.792 0,4 C0,6.208 1.792,8 4,8 L7.2,8 L7.2,6.48 L4,6.48 C2.632,6.48 1.52,5.368 1.52,4 Z M4.8,4.8 L11.2,4.8 L11.2,3.2 L4.8,3.2 L4.8,4.8 Z M12,0 L8.8,0 L8.8,1.52 L12,1.52 C13.368,1.52 14.48,2.632 14.48,4 C14.48,5.368 13.368,6.48 12,6.48 L8.8,6.48 L8.8,8 L12,8 C14.208,8 16,6.208 16,4 C16,1.792 14.208,0 12,0 Z" id="Shape"></path>
        </g>
    </g>
</svg>