<?xml version="1.0" encoding="UTF-8"?>
<svg width="20px" height="20px" viewBox="0 0 20 20" version="1.1" xmlns="http://www.w3.org/2000/svg" xmlns:xlink="http://www.w3.org/1999/xlink">
    <!-- Generator: Sketch 51.3 (57544) - http://www.bohemiancoding.com/sketch -->
    <title>ic_menu</title>
    <desc>Created with Sketch.</desc>
    <defs></defs>
    <g id="ic_menu" stroke="none" stroke-width="1" fill="none" fill-rule="evenodd">
        <path d="M1.11111111,2 L18.8888889,2 C19.5025386,2 20,2.44771525 20,3 C20,3.55228475 19.5025386,4 18.8888889,4 L1.11111111,4 C0.497461389,4 0,3.55228475 0,3 C0,2.44771525 0.497461389,2 1.11111111,2 Z M1.11111111,8.85714286 L18.8888889,8.85714286 C19.5025386,8.85714286 20,9.30485811 20,9.85714286 C20,10.4094276 19.5025386,10.8571429 18.8888889,10.8571429 L1.11111111,10.8571429 C0.497461389,10.8571429 0,10.4094276 0,9.85714286 C0,9.30485811 0.497461389,8.85714286 1.11111111,8.85714286 Z M1.11111111,15.7142857 L18.8888889,15.7142857 C19.5025386,15.7142857 20,16.162001 20,16.7142857 C20,17.2665705 19.5025386,17.7142857 18.8888889,17.7142857 L1.11111111,17.7142857 C0.497461389,17.7142857 0,17.2665705 0,16.7142857 C0,16.162001 0.497461389,15.7142857 1.11111111,15.7142857 Z" id="Shape" fill="#FFFFFF" fill-rule="nonzero"></path>
    </g>
</svg>