<?xml version="1.0" encoding="UTF-8"?>
<svg width="21px" height="20px" viewBox="0 0 21 20" version="1.1" xmlns="http://www.w3.org/2000/svg" xmlns:xlink="http://www.w3.org/1999/xlink">
    <!-- Generator: Sketch 51.3 (57544) - http://www.bohemiancoding.com/sketch -->
    <title>ic_twitter</title>
    <desc>Created with Sketch.</desc>
    <defs></defs>
    <g id="ic_twitter" stroke="none" stroke-width="1" fill="none" fill-rule="evenodd">
        <path d="M20.7530864,3.90044567 C20.2030107,4.71998754 19.5283323,5.41593966 18.729051,5.99336718 C18.7371552,6.14836088 18.7412074,6.32260217 18.7412074,6.51811711 C18.7412074,7.60003394 18.5821615,8.68600289 18.267109,9.77197185 C17.9510434,10.8569278 17.4688408,11.8983234 16.8194881,12.8910935 C16.1711484,13.8838636 15.3971929,14.7631743 14.4996477,15.5300386 C13.6021024,16.2958898 12.5242377,16.9077604 11.2630144,17.3626112 C10.0038172,17.817462 8.65344725,18.04742 7.2119045,18.04742 C4.96398929,18.04742 2.89234142,17.4396015 1,16.2249777 C1.33531318,16.2624598 1.65745695,16.2806944 1.96643133,16.2806944 C3.84459032,16.2806944 5.52318226,15.7022538 7.00018108,14.5453727 C6.12390949,14.5291642 5.33982369,14.2607111 4.64691067,13.7359611 C3.95399764,13.2132373 3.47686016,12.544637 3.21651126,11.7311733 C3.47382107,11.7808118 3.72809179,11.8051245 3.97831038,11.8051245 C4.34097538,11.8051245 4.69654917,11.7575121 5.04604478,11.6643133 C4.11101741,11.4769026 3.33604889,11.0109084 2.7201262,10.2663308 C2.10420351,9.52276628 1.79522913,8.66371621 1.79522913,7.6912067 L1.79522913,7.63954214 C2.37063059,7.95864682 2.98148813,8.12680992 3.63185387,8.14707054 C3.07873908,7.77832735 2.63908374,7.29815078 2.3149139,6.70350173 C1.99074406,6.10986572 1.82764612,5.46760423 1.82764612,4.77570423 C1.82764612,4.04733513 2.01100468,3.36860453 2.37569575,2.73951244 C3.39277861,3.98756631 4.62361096,4.98438856 6.07123189,5.73099222 C7.51885282,6.47759588 9.07081591,6.89192545 10.7281342,6.97499397 C10.6572221,6.68020202 10.621766,6.37122765 10.621766,6.05212296 C10.621766,4.93373703 11.017861,3.97844904 11.809038,3.18727203 C12.600215,2.39609502 13.555503,2 14.6738889,2 C15.8439394,2 16.8316444,2.42648594 17.6329517,3.27945783 C18.5487315,3.09711229 19.4057555,2.76990336 20.2050368,2.29479195 C19.8970754,3.26324933 19.3034394,4.01086602 18.4251418,4.53764201 C19.2335403,4.44140409 20.0095219,4.22866763 20.7530864,3.90044567" id="Fill-4" fill="#FFFFFF"></path>
    </g>
</svg>