<?xml version="1.0" encoding="UTF-8"?>
<svg width="20px" height="20px" viewBox="0 0 20 20" version="1.1" xmlns="http://www.w3.org/2000/svg" xmlns:xlink="http://www.w3.org/1999/xlink">
    <!-- Generator: Sketch 51.3 (57544) - http://www.bohemiancoding.com/sketch -->
    <title>ic_unraise_hand</title>
    <desc>Created with Sketch.</desc>
    <defs></defs>
    <g id="ic_unraise_hand" stroke="none" stroke-width="1" fill="none" fill-rule="evenodd">
        <g id="foot" transform="translate(10.500000, 10.000000) scale(-1, -1) translate(-10.500000, -10.000000) translate(1.000000, 1.000000)" fill="#FFFFFF">
            <path d="M17.4751935,6.95144727 C16.3243208,8.88007187 15.1421061,10.7931927 14.016018,12.7340355 C13.7252712,13.2350836 13.5366637,13.8059499 13.4131852,14.3658302 C13.2533634,15.0908098 12.9563927,15.6774879 12.141168,15.895259 C11.2518118,16.1329489 10.3852397,15.986228 9.80085641,15.3345574 C8.90894396,14.339751 7.7278407,13.7701168 6.56507583,13.1372355 C5.02342877,12.2981852 3.52034789,11.3984548 2.00426343,10.5194644 C1.88178524,10.4485168 1.75719535,10.3536462 1.68450865,10.2417318 C1.47300592,9.91605048 1.25439012,9.55638417 1.53613443,9.19384299 C1.83254945,8.81230717 2.28267349,8.88458952 2.70534552,8.9845938 C2.82715687,9.01344513 2.94107715,9.08408471 3.04810664,9.15010396 C4.45760617,10.0189296 5.98313768,10.6670066 7.57602108,11.1875628 C7.64581809,11.2103564 7.71472597,11.2377703 7.78663468,11.2522473 C8.21497494,11.3386986 8.65943075,11.5145788 9.04898255,11.1796569 C9.4450917,10.8391906 9.19913504,10.4454366 9.11022164,10.0736548 C8.59207886,7.90538952 8.06460017,5.73897241 7.54979163,3.56998845 C7.39730517,2.92776385 7.61036388,2.4033061 8.03525875,2.29190503 C8.46359901,2.17957989 8.94884384,2.5036184 9.15790145,3.14697241 C9.87543252,5.35445904 10.5665118,7.56923551 11.2572578,9.7839093 C11.5253316,10.6433917 12.0881534,10.8045895 12.7766765,10.1717082 C14.0310221,9.0186815 15.0806447,7.72057668 15.9205428,6.2793446 C16.0427987,6.06958203 16.1382695,5.80221947 16.333101,5.68363123 C16.600508,5.52089326 16.992616,5.3448077 17.2542437,5.41596064 C17.5063132,5.48464941 17.6604668,5.86033283 17.8455177,6.08621519 C17.6914753,6.4517339 17.6147875,6.71755636 17.4751935,6.95144727 Z" id="Fill-1"></path>
            <path d="M7.37846664,2.40836791 L7.37846664,0.0534417112 C7.43848318,0.0356791444 7.49849972,0.0178139037 7.55851626,5.13368984e-05 C7.94973518,0.649052406 8.3409541,1.2979508 8.73217302,1.94695187 C8.17690889,1.78103102 7.77290867,1.86224599 7.37846664,2.40836791" id="Fill-3"></path>
            <path d="M12.2306704,17.9783769 C11.8328942,17.9767341 11.495579,17.6599855 11.498691,17.2911812 C11.5019141,16.9119042 11.8206686,16.6285245 12.2453412,16.6274978 C12.6677909,16.626471 12.9723193,16.9108774 12.9688739,17.3030913 C12.9655396,17.6831897 12.6410057,17.9801224 12.2306704,17.9783769" id="Fill-5"></path>
            <path d="M1.69805683,8.54643337 C1.40964402,8.91729112 1.16946672,9.22603123 0.895502332,9.57820235 C0.636653222,9.24410182 0.318343282,8.83330396 3.33425216e-05,8.4225061 C0.0287079111,8.36932107 0.0573824797,8.31623872 0.0860570483,8.26305369 C0.635986372,8.35966973 1.1859157,8.45638845 1.69805683,8.54643337" id="Fill-7"></path>
            <path d="M18.302577,4.0420107 C18.235114,4.5560984 18.1675398,5.0701861 18.1130804,5.48488556 C17.710525,5.28251551 17.3392004,5.09595722 16.9173064,4.88393583 C17.2676252,4.60538182 17.6935203,4.26676364 18.1194154,3.92814545 C18.1804323,3.96603209 18.2415602,4.00402139 18.302577,4.0420107" id="Fill-9"></path>
        </g>
    </g>
</svg>