<?xml version="1.0" encoding="UTF-8"?>
<svg width="20px" height="20px" viewBox="0 0 20 20" version="1.1" xmlns="http://www.w3.org/2000/svg" xmlns:xlink="http://www.w3.org/1999/xlink">
    <!-- Generator: Sketch 51.3 (57544) - http://www.bohemiancoding.com/sketch -->
    <title>ic_whatsapp</title>
    <desc>Created with Sketch.</desc>
    <defs></defs>
    <g id="ic_whatsapp" stroke="none" stroke-width="1" fill="none" fill-rule="evenodd">
        <g id="if_whatsapp-social-media_765205" transform="translate(0.555556, 0.000000)" fill="#FFFFFF" fill-rule="nonzero">
            <path d="M9.39594716,18.2847176 C7.8215787,18.2847176 6.34252175,17.882336 5.05571379,17.1761361 L0.0846762458,18.7557884 L1.70517637,13.9755772 C0.887813498,12.6328829 0.416945834,11.0583112 0.416945834,9.37521844 C0.416945834,4.45458019 4.43689979,0.465719351 9.39615042,0.465719351 C14.3547913,0.465719351 18.3747453,4.45458019 18.3747453,9.37521844 C18.3747453,14.2958567 14.3549946,18.2847176 9.39594716,18.2847176 Z M9.39594716,1.88462227 C5.23312746,1.88462227 1.84702601,5.2449144 1.84702601,9.37521844 C1.84702601,11.0142119 2.38129925,12.5320844 3.28482866,13.7670705 L2.34187399,16.5487867 L5.24267895,15.626764 C6.434785,16.4093758 7.86262974,16.8658146 9.39594716,16.8658146 C13.5581572,16.8658146 16.9448684,13.5057257 16.9448684,9.37542164 C16.9448684,5.24511762 13.5581572,1.88462227 9.39594716,1.88462227 Z M13.9298521,11.427161 C13.8745754,11.3363203 13.7278484,11.2814501 13.5081644,11.1723193 C13.2878707,11.0631886 12.205505,10.5346056 12.004111,10.462055 C11.8021074,10.3893011 11.6551772,10.3525178 11.5086534,10.5711857 C11.3621296,10.7898537 10.9402387,11.2814501 10.8115985,11.427161 C10.6831616,11.5730751 10.5549279,11.5913651 10.3348374,11.4820312 C10.1149501,11.3729004 9.40570188,11.1422423 8.56476516,10.398243 C7.91059033,9.81946391 7.4687836,9.10493187 7.34054985,8.88606068 C7.21211294,8.66759601 7.32693394,8.54952344 7.43708081,8.44079912 C7.53605036,8.34284566 7.6571713,8.18575428 7.76731817,8.05833346 C7.87746499,7.93070943 7.91404516,7.83986873 7.98720539,7.69395462 C8.06077215,7.54824377 8.02398877,7.42082295 7.96891536,7.31128575 C7.9138419,7.20215502 7.47345772,6.12751185 7.29015056,5.69017599 C7.10684345,5.25324654 6.9237395,5.32600037 6.79509939,5.32600037 C6.66666243,5.32600037 6.51993544,5.3077103 6.37320845,5.3077103 C6.22648146,5.3077103 5.98789763,5.36237729 5.78609723,5.580842 C5.58450003,5.79950993 5.01608531,6.3278897 5.01608531,7.40232966 C5.01608531,8.47697282 5.80438731,9.51523908 5.91473739,9.66074672 C6.024681,9.80625442 7.43687755,12.0831648 9.67415948,12.9576333 C11.9122542,13.8318986 11.9122542,13.5402736 12.3158551,13.5038967 C12.7188463,13.4675198 13.6174983,12.9757201 13.8014152,12.4658336 C13.9845191,11.9555407 13.9845191,11.5182049 13.9298521,11.427161 Z" id="Shape"></path>
        </g>
    </g>
</svg>